<svg xmlns="http://www.w3.org/2000/svg" width="677.017" height="298.489"><g stroke-width=".401" stroke-miterlimit="10"><path d="M14.07 46.948s-2.674-6.087-10.214-2.013c-6.269 3.404-3.009 9.69-3.009 9.69l117.816 243.864h28.58L14.066 46.949" fill="#777"/><path d="M677.017 30.24C565.313-22.24 464.25 2.822 351.215 35.933 237.422 69.25 136.204 87.282 22.497 41.87c12.388 21.666 18.59 32.497 30.983 54.146 11.38 19.915 22.773 39.828 34.156 59.734 12.392 21.662 18.587 32.485 30.98 54.142 90.533 25.047 165.508-7.435 245.958-46.804 96.608-47.249 183.87-89.755 294.248-65.127-93.28-45.723-177.842-34.39-275.378-8.489C478.936 41.887 568.841 4.877 677.017 30.24" fill="#f26711"/></g></svg>