<svg height="512" width="512" xmlns="http://www.w3.org/2000/svg"><path d="M512 256c0 141.385-114.615 256-256 256S0 397.385 0 256 114.615 0 256 0s256 114.615 256 256z" fill="#73ba25"/><g fill="#fff"><path d="M425.388 241.309l1.504-.28c.411.324.352.987.22 1.577-.279 1.37-.943 3.86-1.4 5.04l-.383.972c-.53 1.444-1.061 2.815-2.078 3.64-2.798 2.55-7.278 4.583-14.292 7.648-10.846 4.745-28.426 7.736-44.753 7.633-5.852-.133-11.51-.781-16.477-1.341-15.206-1.739-26.199-2.977-28.484 10.846-2.888 17.329 13.411 38.372 13.573 38.562l-.016.576-.529.133s-25.98-11.966-26.615-12.32l-.825-.587-.663-.635c-1.96-1.885-5.894-6.114-13.881-15.37-15.488-17.904-33.613-20.262-47.582-16.858-3.404.81-7.737 3.3-10.551 6.1-7.295 7.192-6.47 21.677-6.057 26.953.487 5.968.796 6.41.929 6.896l-.089.604-.516.06-.294-.207-21.308-10.418-.81-3.478c-.546-2.299-1.18-4.848-2.388-8.046-7.619-20.085-24.742-35.19-43.604-38.446-12.746-2.195-35.985-2.446-48.29 20.778-5.142 9.696-4.833 22.325.811 32.964 5.747 10.891 16.018 17.875 28.175 19.216 12.054 1.313 21.117-1.474 26.2-8.06 5.129-6.647 6.087-15.695 2.447-23.063-3.905-7.911-9.8-12.112-17.993-12.804-6.233-.56-10.86 2.034-12.525 4.686-.486.827-1.37 2.36-1.385 4.54v.073c0 5.938 5.437 7.56 6.542 7.634.34 0 1.975-.044 4.141-.589l1.046-.337.722-.252.531-.102c3.95-.722 7.751 1.606 8.856 5.452.192.706.295 1.415.295 2.12 0 2.55-1.297 4.922-3.448 6.367l.088-.031-.236.132-.353.221c-1.135.722-2.181 1.12-3.286 1.46-3.095 1.014-5.836 1.487-8.591 1.487-9.402-.014-22.502-8.104-22.679-23.297-.088-8.576 4.215-16.386 11.789-21.411 8.723-5.762 23.798-7.722 37.783.854 17.211 10.537 21.706 31.165 17.211 45.24-6.528 20.38-24.889 31.27-49.13 29.103-17.167-1.532-33.11-10.595-42.6-24.24-4.215-6.044-7.34-12.777-9.02-19.496-3.875-15.37.045-31.697 2.963-38.932 9.283-23.003 27.055-42.793 52.769-58.84l1.62-1.018c54.7-33.614 93.412-32.258 121.75-31.27 33.422 1.163 69.066 12.687 73.988 14.323.016-1.106.208-11.067.208-11.067l.147-.34.383-.102c2.242.31 50.265 7.441 70.498 19.23 2.504 1.474 3.742 3.006 5.29 4.598 5.586 5.776 12.983 29.84 13.764 34.806l-.295.501c-.294.103-.987.619-1.915 1.238-4.716 3.3-15.753 11.022-29.9 9.755-12.717-1.12-29.324-8.414-49.35-21.603.885 2.078 5.054 11.951 5.762 13.616l.265.324c2.904 1.503 30.726 15.68 44.533 15.4 11.136-.222 23.028-5.66 27.788-8.518zm-12.938-27.748c.384-11.317-8.503-20.866-19.835-21.264-5.482-.191-10.713 1.754-14.72 5.497-4.023 3.743-6.321 8.827-6.513 14.308-.368 11.318 8.503 20.852 19.818 21.264 5.512.192 10.728-1.753 14.736-5.51 4.008-3.744 6.307-8.813 6.514-14.295z"/><path d="M392.969 198.015c8.06.28 14.367 7.058 14.102 15.119-.118 3.89-1.768 7.5-4.612 10.168-2.86 2.652-6.573 4.037-10.492 3.92-8.046-.295-14.353-7.074-14.09-15.134.119-3.905 1.784-7.516 4.63-10.168a14.385 14.385 0 0 1 10.462-3.905zm8.87 11.656c0-2.402-2.904-4.332-6.483-4.332-3.58 0-6.47 1.93-6.47 4.332 0 2.372 2.89 4.318 6.47 4.318 3.58 0 6.484-1.946 6.484-4.318z"/></g></svg>