<svg height="512" width="512" xmlns="http://www.w3.org/2000/svg"><path d="M512 256c0 141.385-114.615 256-256 256S0 397.385 0 256 114.615 0 256 0s256 114.615 256 256z" fill="#4086cd"/><path d="M273.805 109.632c12.39-14.567 33.331-25.404 50.612-26.132 2.204 20.236-5.907 40.5-17.898 55.1-12.01 14.575-31.667 25.93-50.96 24.415-2.622-19.8 7.1-40.446 18.246-53.383zm98.31 276.039c-14.34 21.03-29.171 41.933-52.585 42.37-23.043.437-30.43-13.693-56.726-13.693-26.324 0-34.562 13.256-56.316 14.13-22.605.85-39.797-22.713-54.25-43.65-29.527-42.808-52.075-121.042-21.761-173.839 15.011-26.22 41.914-42.807 71.059-43.248 22.202-.41 43.174 15.016 56.73 15.016 13.584 0 39.042-18.52 65.798-15.801 11.201.463 42.639 4.527 62.833 34.162-1.599 1.05-37.525 22.023-37.092 65.708.437 52.183 45.586 69.525 46.112 69.763-.414 1.226-7.222 24.763-23.802 49.082z" fill="#fff"/></svg>