<svg xmlns="http://www.w3.org/2000/svg" xmlns:xlink="http://www.w3.org/1999/xlink" width="128" height="128"><defs><linearGradient id="a"><stop offset="0" stop-color="#fff68e"/><stop offset=".5" stop-color="#faea82"/><stop offset="1" stop-color="#d6aa4a"/></linearGradient><radialGradient xlink:href="#a" id="b" gradientUnits="userSpaceOnUse" gradientTransform="matrix(.22648 0 0 .1619 371.195 378.876)" cx="429.496" cy="326.186" fx="429.496" fy="326.186" r="23.596"/></defs><path d="M71.337 11.701c-.97 2.254-.699 4.884-1.406 7.227-.162.54-.696 2.17-1.476 2.057-1.596-.23-.77-3.297-2.611-3.358l.578 4.481c-2.767.348-2.39-3.972-3.513-5.727-1.296-2.025-1.608.919-1.521 1.824.055.58.172 1.156.242 1.735.12 1.007.15 1.884.022 2.89-2.644-.03-1.673-3.51-3.613-4.046l.144 4.191c-2.931-.024-4.267-2.67-5.554-4.914-.538-.937-1.252-2.747-2.54-2.168.602 2.604 2.028 5.096 2.173 7.805.038.7-.623 2.478-1.595 2.151-2.244-.756-1.943-4.828-3.813-5.9-.378-.216-.975-.027-1.39-.01 0 2.16.951 4.772 1.706 6.794.163.435.619 1.964-.329 1.936-1.693-.051-2.115-3.334-3.835-2.948.21.886.737 1.605 1.03 2.458.18.52.511 1.047.608 1.59.21 1.185-1.292 1.281-2.071 1.051-1.842-.542-3.164-2.048-4.481-3.364-.365-.365-1.328-1.65-1.936-1.066-.676.648.651 1.787 1.028 2.222 1.125 1.3 2.342 2.824 2.88 4.481.23.712.276 1.724-.431 2.212-.702.485-1.843-.395-2.408-.767-1.733-1.14-3.456-3.133-5.638-3.18l-.51 1.301 1.39 1.88 3.601 4.047-4.192-1.735c.17 1.096 2.795 2.424 2.278 3.553-.306.67-1.825.68-2.422.595-2.137-.304-3.65-1.895-5.637-2.466-1.756-.503-1.429.858-.434 1.645.346.273.678.559 1.012.846.6.517 1.174 1.048 1.734 1.609.877.876 1.645 1.813 2.458 2.746l-4.192-.144v.289l4.047 1.879-.723 2.89c-1.168-.002-2.116-.32-3.18-.783-.725-.316-1.488-.84-2.312-.782-.984.07-1.57.968-.91 1.808.988 1.258 2.969 1.976 4.234 2.956.482.375 1.182 1.014.636 1.653-1.079 1.263-3.985-.357-5.406.063v.29c1.319.768 4.022 1.207 4.797 2.626.607 1.11-1.118 3.624-2.34 3.526-1.088-.088-2.088-1.316-2.89-1.961-1.921-1.543-3.976-3.358-6.216-4.423-3.839-1.826-7.652 1.082-10.696 2.977.39 1.229 1.926-.079 2.891.14 1.3.295 2.286 1.503 3.119 2.462 4.024 4.634 7.392 9.889 8.897 15.9.396 1.582 1.072 3.475-.11 4.893-.318.38-.79.43-1.14.744-.262.235-.249.567.11.677.662.202 1.628-.106 2.277-.262 2.122-.511 4.544-1.656 5.507-3.74.6-1.296.81-3.817 2.299-4.336.33 1.39 1.891 3.227 1.74 4.626-.136 1.242-1.444 2.68-2.209 3.6-.27.326-.925 1.04-.533 1.507.39.466 1.193-.536 1.435-.765 1.097-1.036 3.495-2.672 4.146-.295.566 2.067-1.253 5.409-2.161 7.227-.253.506-1.417 2.087-.963 2.65.525.65 1.621-1.043 1.855-1.35.91-1.192 4.101-4.729 5.796-3.458 2.067 1.55 1.354 2.658.57 4.76-.22.592-1.035 2.076-.48 2.639.536.544 1.24.046 1.514-.474.496-.94 1.83-3.735 3.166-3.022.836.447 2.114 1.204 2.6 2.038.76 1.304.099 3.906-.104 5.323-.116.816-.994 3.362-.265 3.952.672.544 1.216-1.093 1.418-1.495.712-1.414 1.531-2.862 2.591-4.047.38-.425.919-1.138 1.565-1.017 3.357.628-.073 3.973 1.305 5.68.279.345 1.035.32 1.441.396l1.735-4.48c.882.34 2.18.457 2.83 1.187.547.613.654 1.648.812 2.426.443 2.177.685 4.293.405 6.504.275.198.708.657 1.077.421.467-.297.526-1.512.686-2.01.51-1.595 1.288-3.12 2.01-4.626.477-.992 1.775-2.049 2.711-.682.961 1.4.576 3.851 1.177 5.452 1.535-.757 1.702-3.953 1.734-5.493l1.991.29 1.197 2.457 2.16 6.215c1.119-.428.765-2.579.89-3.614.17-1.403.496-4.222 1.525-5.266.414-.421 1.24-.457 1.777-.66.614 1.496.95 3.192 1.693 4.623.29.558.949 1.16 1.616.817.638-.327.614-1.072.532-1.682-.2-1.498-.542-2.97-.66-4.48 2.865-.203 4.546 2.114 6.346 4.047.696.746 1.302 1.736 2.326 2.023l-1.486-4.336-.827-4.047c1.04-.436 3.24-2.562 4.336-2.253 1.633.462 2.88 5.01 4.906 3.941.865-.456.418-1.229.012-1.833-.605-.9-2.422-3.061-2.225-4.191.145-.838 1.548-1.813 2.366-1.802 1.874.026 5.132 1.452 6.216 2.958l1.3-.145c-.194-2.588-4.073-3.768-4.627-6.36a1.937 1.937 0 0 1 .017-.826c.412-1.661 1.411-.936 2.442-.49.322.14 1.025.497 1.29.099.294-.439-.226-1.017-.416-1.384-.39-.75-.747-1.615-.584-2.458 1.35.354 2.183 1.157 3.324 1.915.27.18.865.63 1.205.379.358-.264-.17-.795-.34-.993-.51-.59-2.07-2.017-1.916-2.878.104-.58 1.085-1.204 1.485-1.603 1.321-1.32 2.826-2.664 3.902-4.191h.145c2.553 2.978 10.556.89 9.54-3.614-.637.091-1.228.591-1.88.367-2.846-.981-2.158-5.542-5.347-5.57-.236-2.973-1.43-5.945-2.871-8.528-.661-1.185-2.035-2.269-2.515-3.475-.266-.669-.22-1.73-.252-2.452 1.673-.26.848-1.953.24-2.89-.679-1.045-1.396-2.285-2.277-3.167-1.081-1.083-2.692-1.79-2.553-3.627.129-1.711 3.078-1.494 3.579-3.035-.875.037-1.74.254-2.602.397-2.148.358-2.522-.364-1.52-2.277.877-1.67 2.272-2.938 3.502-4.336.394-.447 1.608-1.466.983-2.114-.517-.535-1.37.282-1.809.572-1.595 1.058-3.377 1.84-5.203 2.406-.544.168-2.148.796-2.33-.168-.245-1.302 2.218-1.545 1.896-3.008-.986.234-2.923 1.79-3.87 1.068-1.14-.868.534-3.083.713-4.104.182-1.034-.65-1.072-1.235-.425-.205.227-.39.474-.58.714-.327.415-.598.818-.81 1.301-2.367-1.382 2.112-2.988 1.269-4.267-.3-.456-.855 0-1.124.236-.562.492-2.675 2.926-3.134 1.14-.509-1.977.518-4.35 1.05-6.215.138-.487.765-1.8.157-2.15-.888-.511-1.277 1.211-1.485 1.716-.64 1.555-1.699 2.907-2.948 4.022-.412.368-1.11 1.08-1.726.91-.895-.246-.898-2.727-.87-3.486.013-.362.216-.985-.137-1.247-.46-.341-.7.344-.769.67-.224 1.063-.884 4.104-2.462 2.11-1.427-1.804.78-5.545-2.13-6.303l-1.59 5.059c-1.906-.416-1.483-3.14-1.012-4.626l-.867-.289a15.83 15.83 0 0 1-.534 1.735c-.77 2.162-1.8 2.583-2.595.144-.606-1.86-.391-3.869-.693-5.781-.12-.763-.192-1.537-.948-1.88z" fill="#0096ff"/><path d="M71.481 15.765c-.085 4.13-1.332 7.224-5.926 7.227l1.59 6.505c-1.725-1.808-2.354-4.339-3.132-6.65-.494-1.466-1.122-2.94-1.349-4.48h-.145c.054 2.61.605 5.198.08 7.805-.288 1.433-1.096 2.547-1.525 3.903h-.144l.867-6.36c-3.227.255-6.013.744-8.127-2.313-.46-.664-.814-1.424-1.124-2.168h-.144c.362 2.419 2.516 5.24-.013 7.27-.387.31-.833.5-1.288.68l2.285 3.463 1.328 1.74c-3.657-2.421-5.832-6.64-7.66-10.551h-.145c.466 3.113 2.358 5.927 2.83 9.106.163 1.104.59 2.667-.373 3.469l-1.156-5.493c-1.684.874-2.98 3.5-5.204 3.129-.946-.158-1.711-.924-2.601-1.25.419 1.325 1.579 2.577.917 4.048-.245.544-.722.961-1.062 1.445l4.625 1.735c-.844 1.01-2.6.217-3.613-.258-1.92-.9-3.627-2.088-5.348-3.314-.978-.697-2.13-1.69-3.325-1.921.736 1.579 2.626 2.916 3.903 4.072 1.056.955 1.844 2.06 2.735 3.155.877 1.08 2.023 2.298 1.601 3.758-1.537-1.55-2.88-2.677-5.203-2.134-.844.197-1.555.692-2.458.67-1.607-.04-3.159-.858-4.625-1.427.851 1.826 3.095 2.809 3.573 4.915.352 1.547-.764 3.522-.971 5.059l4.914.722v.29c-4.214 1.115-7.183-1.2-11.13-1.88v.145c2.662 1.26 5.678 3.386 7.576 5.637.69.819 1.536 1.77 1.53 2.891-.776-.63-2.243-2.273-3.324-2.107-.862.132-1.147 1.089-1.261 1.818-.308 1.967-.329 4.08-.329 6.07-.828-.722-.722-1.73-.722-2.746-1.029.678-2.14 1.528-3.47 1.261-1.344-.27-2.684-1.926-3.613-2.85-1.836-1.827-3.87-3.628-6.504-3.986-1.374-.187-5.534.006-3.675 2.104.192.216.384.44.645.577.979.51 3.067-.14 4.186-.14v.144l-3.614.722c1.452 3.043 4.596.315 6.36 2.168-1.205-.356-3.275-.356-4.48 0l2.019 2.602.928 1.214 3.412.376v.145h-3.035c.18 1.592 2.02 1.158 3.18 1.012v.144l-2.457.434c.386.895 1.329 3.552 2.224 3.96.7.318 1.675-.298 2.256-.636-.798 1.455-2.224.869-1.445 2.891l2.313-1.156c-.516.58-1.382 1.04-1.73 1.736-.402.803.276 2.258.573 3.034l2.313-1.735-2.201 2.47.177 2.59c1.938-.808 3.508-2.24 4.334-4.193.343-.81.38-1.824.788-2.582.299-.554 1.162-.465 1.336-1.064.333-1.147-.375-2.078.191-3.292h.145l.433 2.313c1.46-.41 2.33-2.706 2.747-4.047h.289c.403 1.854-1.275 3.056-1.88 4.625 1.021.236 2.856.732 2.747 2.024l-3.613-1.301 2.746 6.07h.144c1.323-1.998 2.6-5.176 4.481-6.648.657 2.132-1.619 3.865-2.457 5.637 1.24-.34 3.487-2.003 4.625-1.301-1.593.663-3.008 1.619-4.178 2.89-.385.42-1.089 1.121-1.08 1.735.008.628.78 1.388 1.128 1.88 1.263 1.784 2.79 3.662 4.709 4.77.785-1.493 1.448-2.985 1.86-4.626.19-.753.16-1.768.886-2.168.707 3.988-2.145 8.384-3.036 12.141 2.718-2.304 4.359-6.03 7.806-7.516-.08 1.858-3.067 2.842-3.227 4.912-.056.727.847 1.105 1.348 1.452 1.401.97 2.588 2.05 4.191 2.699.577.233 1.122.723 1.658.164.975-1.018 1.058-2.995.903-4.312-.099-.835-.445-2.11.186-2.747l1.006 5.927-.573 6.938h.145c1.351-3.434 2.548-7.167 5.203-9.83.016 1.812-2.033 4.36-2.746 6.071 2.71 1.268 5.887 2.034 8.817 2.602.23-1.815.163-3.57-.311-5.348-.213-.796-.91-1.86-.411-2.602 1.792 3.858 3.755 7.771 3.758 12.142h.144c.002-2.65.464-5.354.983-7.95.095-.474.231-2.427.901-2.427.731 0 .445 1.17.373 1.56-.33 1.774-.729 3.558-.956 5.348l6.215-.155 2.164-.386-.057-2.205-2.974-5.204c1.13-.258 2.248 1.755 2.773 2.602 1.914 3.087 3.204 7.021 4.02 10.551h.145c-.378-4.777-1.623-9.186-1.012-14.02 1.407.565.65 4.124.827 5.492.057.44-.01 1.591.52 1.766.495.163 1.362-.263 1.833-.417 1.701-.554 3.291-1.354 4.915-2.097.62-.284 1.5-.63 1.544-1.42.156-2.784-2.348-3.576-4.001-5.059 1.458-.151 2.523.806 3.613 1.652 1.628 1.263 3.232 2.698 4.562 4.275.767.908 1.334 2.127 2.232 2.89-.495-1.552-1.687-3.01-2.422-4.48-1.424-2.85-2.524-5.937-2.926-9.107h.144l2.746 7.228c1.493-.508 2.705-2.281 3.67-3.47.434-.534.972-1.026.956-1.734 2.426-.873-.685-2.798-1.157-3.614 1.681-.252 3.193 1.374 4.77 1.735-.703-1.506-1.926-3.475-1.59-5.204h.29l1.011 2.891c2.532-2.34 5.53-4.743 7.415-7.66 2.662-4.12 2.645-9.331.783-13.732-.51-1.205-.996-2.913-1.894-3.881-1.28-1.378-2.387.94-2.546 2.002a4.123 4.123 0 0 1 1.734.665c1.96 1.326 2.061 3.652 1.236 5.695-.35.866-.997 1.64-1.06 2.602-.077 1.19.564 2.322.77 3.469.341 1.903-.59 3.929-1.957 5.19-1.268 1.17-3.045 1.814-4.77 1.56-.797-.118-1.646-.871-2.457-.572-1.271.47-1.518 2.394-2.313 3.361-.358-2.173 1.291-3.424 1.636-5.348.18-1-.553-2.656-.865-3.613-.247-.757-.628-2.887-1.781-2.453-.744.28-1.118 1.125-1.555 1.73-1.03 1.427-1.966 3.175-3.795 3.614.672-1.735 2.494-3.187 3.514-4.77 2.022-3.142 4.167-8.453 1.489-11.853-.807-1.024-2.102-1.748-3.268-2.295-1.604-.753-3.369-.988-5.06-1.463v-.289l2.024-.289-.433-3.18-1.301.434c.015-5.292 5.31-8.18 8.962-10.986l-.668 1.88 1.802 2.746 3.635 5.637-1.445-.145c.279 2.07.774 4.01.044 6.071-.47 1.325-1.624 2.429-1.973 3.758-.177.67.145 1.35.145 2.024.001.94-.322 1.843-.529 2.746 2.59-1.232 3.084-5.009 5.782-5.926-.22-1.28-.764-2.434-.854-3.758-.196-2.856.368-5.68-.077-8.528-.487-3.117-1.844-5.91-2.972-8.817l1.301.578c.3-2 1.947-3.08 3.036-4.625-1.671.608-4.238 2.68-6.071 1.588-1.264-.752-1.723-2.409-3.035-3.034l-1.735 6.938h-.145c-.762-3.203.876-6.234 1.59-9.25-2.202 1.781-3.74 4.03-6.793 4.48l4.192-3.048.961-1.407-1.25-1.081-3.18-2.269 1.445.29.578-4.626h-.144a8.574 8.574 0 0 1-1.17 1.59c-.597.644-1.38 1.676-2.238 1.97-1.681.579-4.004-1.38-5.554-1.826v6.65c-1.477-.248-1.285-1.739-1.3-3.036-.035-2.857-.124-5.669 0-8.528h-.145c-.433 3.213-1.487 7.792-4.626 9.395.899-1.443 1.753-2.675 2.23-4.336.14-.49.55-1.326.035-1.715-1.457-1.096-3.691-.16-4.888-1.901-1.176-1.712-.404-3.893-1.135-5.635z" fill="#0096ff" stroke="#0096ff" stroke-width=".346"/><path d="M62.664 18.8l.145.145-.145-.145m-.145.434l.145.145-.145-.145zM79.865 19.812l.144.145-.144-.145zM70.758 20.101l.145.145-.145-.145zM79.72 20.39l.145.145-.145-.145zM70.614 20.535l.144.144-.144-.144zM46.764 21.691l.145.145-.145-.145zM69.891 21.691l.145.145-.145-.145m-.144.145l.144.144-.144-.144m3.324.144l.145.145-.145-.145m-19.802.145l.144.144-.144-.144m20.091 0l.145.144-.145-.144m-26.162.144l.145.145-.145-.145m7.083 0l.144.145-.144-.145m19.368 0l.145.145-.145-.145zM54.714 22.703l.145.145-.145-.145m13.009 0l.145.145-.145-.145zM90.56 22.703l.145.145-.144-.145zM90.464 22.944l.049.096-.049-.096zM47.198 22.992l.145.145-.145-.145m29.631 0l.145.145-.145-.145zM53.558 23.57l.144.145-.144-.145zM90.272 23.57l.144.145-.144-.145zM47.92 24.871l.145.145-.144-.145m.722 0l.145.145-.145-.145m.145.29l.144.144-.144-.145zM70.18 25.738l-2.312 10.408c1.781-1.086 2.158-5.044 2.312-6.939h.145c.31 1.667.46 3.337 1.138 4.915.268.625.563 1.458 1.319 1.445l-1.85-6.504-.752-3.325zM64.977 25.883l.144.145-.144-.145m-12.286.29l.144.144-.144-.145m-.723.578l.144.145-.144-.145m-.723.29l.145.144-.145-.145m18.502.434l.144.145-.144-.145zM56.015 27.618c.03 3.695 1.858 7.06 1.156 10.84.694-.424.714-1.414.723-2.168.02-1.749-.284-3.463-.289-5.203h.145c.503 1.746 1.868 5.22 3.902 5.492-.244-.939-1.012-1.65-1.527-2.457-1.143-1.794-2.262-5.415-4.11-6.504zM50.233 27.762l.145.145-.145-.145zM56.304 27.762l.145.145-.145-.145zM76.106 27.907l.145.144-.145-.144zM69.602 28.196l.145.144-.145-.144m7.083 0l.144.144-.144-.144zM88.97 28.196l.145.144-.144-.144zM76.54 28.34l.145.145-.145-.145m-.867.145l.144.144-.144-.144m.723 0l.144.144-.144-.144z" fill="#fff"/><path d="M56.882 28.63l.145.144-.145-.145m9.54.145l.145.144-.145-.144zM89.838 28.774l.145.144-.145-.144zM75.673 29.063l.144.144-.144-.144zM85.646 29.207c-1.607 2.524-3.523 5.968-5.926 7.806v.144c1.823-.325 3.792-2.628 4.336-4.336h.145c-.021 2.571-1.203 5.297-.145 7.805h.145c.769-2.602.368-5.671 1.03-8.383.208-.85.973-2.268.415-3.036zM48.354 29.497l.145.144-.145-.144zM57.46 29.641l.145.145-.145-.145m-7.95.29l.145.144-.144-.145m-1.012.145l.144.144-.144-.144m3.324 0l.145.144-.145-.144m19.224 0l.145.144-.145-.144m-1.156.289l.145.144-.145-.144zM85.646 30.364l.145.144-.145-.144zM94.463 30.508l.145.145-.145-.145m-54.203.145l.144.144-.144-.144zM58.039 30.653l.144.144-.144-.144zM94.463 30.653l.145.144-.145-.144zM84.49 30.942l.144.145-.144-.145zM52.98 31.231l.144.145-.144-.145zM80.154 31.231l.144.145-.144-.145zM54.28 31.52l.145.145-.144-.145zM54.425 31.665l.145.144-.145-.144zM83.912 31.665l.144.144-.144-.144zM54.57 31.81l.144.144-.144-.145zM42.717 31.954l.145.144-.145-.144zM93.307 31.954l.145.144-.145-.144m-.145.144l.145.145-.145-.145m-60.418.29l.144.144-.144-.145zM41.127 32.387l.145.145-.145-.145zM58.328 32.532l.144.144-.144-.144z" fill="#fff"/><path d="M84.2 32.676l.145.145-.144-.145zM91.139 32.676l.144.145-.144-.145zM92.584 32.676l.145.145-.145-.145zM84.056 32.821l.145.145-.145-.145zM57.027 33.4l.144.144-.144-.145zM93.452 33.544l.144.144-.144-.144zM57.75 33.833l.144.144-.144-.144zM89.26 33.977l.144.145-.144-.145zM60.062 34.122l.145.144-.145-.144zM96.053 34.411l.145.145-.145-.145z" fill="#fff"/><path d="M103.859 34.411l.144.145-.144-.145z" fill="#0096ff"/><path d="M60.351 34.556l.145.144-.145-.144zM82.9 34.556l.145.144-.145-.144z" fill="#fff"/><path d="M103.859 34.556l.144.144-.144-.144zM103.28 34.7l.145.145-.145-.145m.434 0l.145.145-.145-.145z" fill="#0096ff"/><path d="M82.61 34.845l.145.144-.144-.144zM103.57 34.845l.144.144-.144-.144zM59.629 34.99l.144.144-.144-.145zM76.106 34.99c-.853 1.924-1.27 3.713-3.035 5.058v.29c1.269.333 2.153-1.259 2.457-2.313h.145c.125.97.243 2.99 1.3 3.324l-.709-3.324-.158-3.036zM96.487 34.99l.144.144-.144-.145zM103.425 34.99l.145.144-.145-.145zM45.174 35.134c.313 3.555 5.095 5.958 4.481 9.829.769-.45.567-1.287.309-2.024-.534-1.523-1.427-2.856-2.043-4.336 1.383 1.262 3.426 2.69 5.348 1.879l-3.033-1.257-5.062-4.091zM103.28 35.134l.145.144-.145-.144zM103.136 35.278l.144.145-.144-.145zM94.03 35.423l.144.144-.144-.144zM101.835 35.423l.145.144-.145-.144zM102.991 35.423l.145.144-.145-.144zM60.062 35.567l.145.145-.145-.145zM82.033 35.567l.144.145-.144-.145zM102.847 35.567l.144.145-.144-.145zM45.174 35.712l.145.144-.145-.144m36.714 0l.145.144-.145-.144zM102.702 35.712l.145.144-.145-.144zM46.186 35.856l.145.145-.145-.145zM102.558 35.856l.144.145-.144-.145zM38.092 36.001l.144.145-.144-.145zM81.6 36.001l.144.145-.145-.145m-.144.145l.144.144-.144-.144zM36.213 36.29l.144.145-.144-.145zM60.785 36.29l.145.145-.145-.145zM65.121 36.29c-.437 1.439-1.664 4.248-1.156 5.637h.289l1.012-3.469h.144c.357 1.309.732 3.293 2.313 3.47L65.41 36.29h-.289zM36.357 36.435l.145.144-.145-.144zM101.98 36.435l.144.144-.144-.144zM36.502 36.58l.144.144-.144-.145zM41.127 36.58l.145.144-.145-.145m39.027 0l.144.145-.144-.145zM36.646 36.724l.145.144-.145-.144zM39.248 36.724l.145.144-.145-.144zM75.384 36.724l.144.144-.144-.144m.867 0l.145.144-.145-.144zM80.01 36.724l.144.144-.145-.144zM36.79 36.868l.145.145-.144-.145z" fill="#fff"/><path d="M79.865 36.868l.144.145-.144-.145m-32.233.29l.144.144-.144-.145zM83.623 37.157l.144.145-.144-.145zM46.186 37.59l.145.145-.145-.144m28.764.144l.145.145-.145-.145zM41.56 37.88l.145.145-.144-.145m-3.614.145l.145.144-.145-.144zM48.643 38.025l.145.144-.145-.144m8.528 0l.145.144-.145-.144zM93.452 38.025l.144.144-.144-.144zM57.46 38.314l.145.144-.145-.144m7.806.144l.144.145-.144-.145m10.407 0l.144.145-.144-.145m-28.475.578l.145.145-.145-.145zM100.534 39.036l.145.145-.145-.145zM49.077 39.47l.145.145-.145-.145zM99.811 39.47l.145.145-.145-.145zM47.632 39.615l.144.144-.144-.144m26.74.144l.145.145-.145-.145zM55.437 39.904l.723 6.07h.289l-.145-4.336c.943.656 2.218 2.274 3.47 1.735-.484-.523-1.183-.615-1.735-1.062-.897-.726-1.37-2.31-2.602-2.407zM48.643 40.193l.145.144-.145-.144m24.428.144l.145.145-.145-.145m-24.861.145l.144.144-.144-.144m15.61 0l.145.144-.145-.144zM83.912 40.482l.144.144-.144-.144m.289 0l.144.144-.144-.144zM87.236 40.77c-1.524 1.53-2.798 2.58-4.914 3.18v.29c1.252.36 2.463-.335 3.469-1.012-.165.849-1.247 3.07-.434 3.614l1.388-4.192.491-1.88zM56.738 40.915l.144.145-.144-.145m-16.478.145l.144.145-.144-.145m23.271 0l.145.145-.145-.145m13.443 0l.144.145-.144-.145zM86.803 41.06l.144.145-.144-.145zM30.431 41.35l.145.144-.145-.145zM67.29 41.35l.144.144-.145-.145zM38.236 41.494l.145.144-.145-.144zM100.679 41.494l.144.144-.144-.144zM48.788 41.638l.144.145-.144-.145m.578 0l.145.145-.145-.145m14.888 0l.145.145-.145-.145m-25.15.145l.144.144-.144-.144zM85.935 42.072l.145.144-.145-.144m.868.144l.144.145-.144-.145zM95.909 42.216l.144.145-.144-.145zM29.997 42.36l.145.145-.145-.144zM57.46 42.505l.145.145-.145-.145m-7.66.145l.144.144-.144-.144m8.672 0l.145.144-.145-.144zM30.431 42.794l.145.145-.145-.145zM84.924 42.794l.144.145-.144-.145zM58.039 42.939l.144.145-.144-.145m1.59.145l.144.144-.144-.144zM85.502 43.228l.144.145-.144-.145z" fill="#fff"/><path d="M58.761 43.373l.145.144-.145-.144m.29.144l.144.145-.145-.145m24.428 0l.145.145-.145-.145zM92.729 43.517l.144.145-.144-.145m-61.575.145l.144.144-.144-.144z" fill="#fff"/><path d="M88.826 50.166c3.307-.796 6.924-1.267 10.263-.578-.498-1.727-1.787-3.145-2.93-4.48-.391-.458-.89-1.303-1.552-1.353-.784-.06-1.468.697-2.023 1.134-1.623 1.28-3.023 3.335-3.758 5.277z" fill="#0096ff" stroke="#fff"/><path d="M84.345 43.95l.145.145-.145-.144zM92.15 43.95l.145.145-.144-.144zM62.52 44.095l-.868 4.481c.726-.55.894-2.304 1.012-3.18l1.3 1.446c-.151-.975-.72-2.077-1.445-2.747zM82.322 44.24l.144.144-.144-.144zM85.502 44.24l.144.144-.144-.144m9.973.144l.145.145-.145-.145zM76.685 44.529l-2.747 2.746 2.602-1.879.434 2.602c.505-.74.24-2.77-.29-3.469m-30.642.434v.144c1.218 1.23 2.22 2.923 2.981 4.481.419.858.3 1.803 1.21 2.313-.072-1.69-.795-2.972-1.445-4.481 1.024.597 2.396 1.49 3.614 1.156v-.289c-1.64-.729-2.91-1.35-4.337-2.485-.607-.484-1.23-1.11-2.023-.84z" fill="#fff"/><path d="M92.584 44.818l.145.145-.145-.145m-29.342.29l.145.144-.145-.145m-17.056.145l.145.144-.145-.144m17.2.144l.145.145-.144-.145zM96.342 45.396l.145.145-.145-.145zM62.953 45.54l.145.145-.145-.144zM90.56 45.54l.145.145-.144-.144zM97.788 45.54l.144.145-.144-.144zM32.166 45.685l.144.145-.144-.145zM75.384 45.685l.144.145-.144-.145m1.156 0l.145.145-.145-.145m8.528 0l.145.145-.145-.145m-37.003.145l.145.144-.145-.144m14.454 0l.145.144-.145-.144z" fill="#fff"/><path d="M102.124 45.83l.145.144-.145-.144z" fill="#0096ff" stroke="#fff"/><path d="M91.283 45.974l.145.145-.145-.145zM75.528 46.119l.145.144-.145-.144zM36.357 46.263c.136 1.22 1.134 1.674 2.024 2.348 1.222.924 2.357 1.924 3.29 3.145.608.795.983 2.17 1.769 2.746-.17-2.125-1.423-4.626-3.47-5.492v-.145c2.081.404 4.153 1.177 6.216.29v-.29l-2.457-.096-7.372-2.506zM47.053 46.263l.145.145-.145-.145m27.463.145l.145.145-.145-.145m10.841 0l.145.145-.145-.145m-36.425.145l.145.144-.145-.144m25.44 0l.144.144-.144-.144zM98.51 46.553l.145.144-.144-.144zM89.549 46.697l.144.145-.144-.145z" fill="#fff"/><path d="M103.57 46.697l.289 3.47 3.18.433c-.533-1.404-2.051-3.353-3.47-3.903z" fill="#0096ff" stroke="#fff"/><path d="M63.965 46.842l.144.144-.144-.144zM68.59 46.842l-1.3 2.457 1.445-1.59.867 1.445-1.012-2.312zM85.213 46.842l.144.144-.144-.144z" fill="#fff"/><path d="M103.57 46.842l.144.144-.144-.144z" fill="#0096ff" stroke="#fff"/><path d="M47.487 46.986l.145.145-.145-.145m2.024 0l.144.145-.144-.145zM97.643 46.986l.145.145-.145-.145zM31.876 47.13l.145.145-.145-.144z" fill="#fff"/><path d="M68.157 47.275l.144.145-.144-.145m-17.924.145l.145.144-.145-.144m-.867.289l.145.144-.145-.144m27.752 0l.145.144-.145-.144m27.752 0l.145.144-.145-.144m-36.135.144l.144.145-.144-.145m36.28 0l.145.145-.145-.145m-64.032.145l.144.145-.144-.145m64.177 0l.144.145-.144-.145m-67.357.145l.144.144-.144-.144m31.51 0l.145.144-.145-.144z" fill="#0e0d08"/><path d="M31.587 48.432l.145.144-.145-.144zM38.236 48.432l.145.144-.145-.144zM89.693 48.432l.145.144-.145-.144zM61.797 48.576l.144.145-.144-.145m6.07.145l.145.144-.144-.144zM31.443 49.01l.144.144-.144-.144zM40.983 49.01l.144.144-.144-.144m8.528 0l.144.144-.144-.144m-.723.144l.144.145-.144-.145zM89.26 49.154l.144.145-.144-.145zM95.475 49.154l.145.145-.145-.145zM98.077 49.299l.144.144-.144-.144zM39.682 49.588l.144.145-.144-.145m9.395.145l.145.144-.145-.144z" fill="#fff"/><path d="M106.75 50.022l.144.144-.145-.144z" fill="#0096ff" stroke="#fff"/><path d="M82.466 50.31l-2.457 1.88 2.168-1.157-.289 1.735c.615-.429.844-1.776.578-2.457zM96.92 58.983c1.097-.522 1.622-1.771 1.918-2.89.364-1.378.838-5.01-.912-5.695-.962-.377-2.57.057-3.607.057-.94 0-2.943-.143-3.671.557-.672.647-.17 3.083.325 3.74.514.682 1.737.817 2.479 1.164 1.477.693 2.666 1.627 3.469 3.067z" fill="#fff"/><path d="M100.968 50.455l.144.145-.144-.145z" fill="#0096ff"/><path d="M106.171 50.455l.145.145-.145-.145m.868 0l-.145.29.145-.29z" fill="#0096ff" stroke="#fff"/><path d="M98.366 50.6l.145.144-.145-.144z" fill="#0096ff"/><path d="M86.621 55.5l.145.144-.145-.144zM32.166 50.744l.144.145-.144-.145zM81.6 50.744l.144.145-.145-.145zM28.263 50.889l.144.144-.144-.144zM90.416 50.889l.145.144-.145-.144m8.095 0l.144.144-.144-.144m-48.422.144l.144.145-.144-.145m31.944 0l.144.145-.144-.145zM29.13 51.178l.145.144-.145-.144zM80.876 51.178l.145.144-.145-.144z" fill="#fff"/><path d="M98.655 51.178l.145.144-.145-.144z" fill="#0096ff"/><path d="M103.57 51.178v1.3c2.62-.947 3.214 2.887.433 2.747l.578 3.325c1.937-.904 2.83-5.263 1.239-6.892-.48-.492-1.6-.429-2.25-.48zM27.396 51.322l.144.145-.144-.145zM42.428 51.467l.145.145-.145-.145m38.882 0l.145.145-.145-.145m7.227 0l.145.145-.145-.145z" fill="#fff"/><path d="M98.8 51.467l.144.145-.144-.145m6.938 0l.144.145-.144-.145z" fill="#0096ff"/><path d="M27.83 51.612l.144.144-.145-.144zM88.248 51.612l.145.144-.145-.144m-38.304.144l.145.145-.145-.145z" fill="#fff"/><path d="M96.198 51.756c-.296.305-.728.526-.946.898-1.528 2.612 4.246 2.68 2.615-.145-.186-.321-.516-.53-.802-.753l-.867.434v-.434z" fill="#0096ff"/><path d="M96.342 51.756v.145h.579l-.579-.145zM98.944 51.756l.145.145-.145-.145z" fill="#0096ff"/><path d="M28.263 51.9l.144.145-.144-.144z" fill="#fff"/><path d="M95.812 51.997l.049.096-.049-.096zM96.005 51.949l.096.048-.096-.048m.193.096v.145l.723-.145h-.723zM97.21 51.9l.144.145-.144-.144zM95.62 52.045l.144.145-.144-.145zM97.499 52.045l.144.145-.144-.145z" fill="#0096ff"/><path d="M28.697 52.19l.144.144-.144-.144z" fill="#fff"/><path d="M95.475 52.19l.145.144-.145-.144zM104.003 52.19l.434.289v-.145l-.434-.144zM104.148 52.19l.144.144-.144-.144zM104.292 52.19l.145.144-.145-.144zM104.581 52.19l.145.144-.145-.144zM104.726 52.19l.144.144-.144-.144z" fill="#0096ff"/><path d="M42.862 52.334l.144.145-.144-.145zM65.844 52.334c0 .736-.142 1.482.578 1.88v-1.446l1.735.578-2.313-1.012zM66.133 52.334l.145.145-.145-.145z" fill="#fff"/><path d="M103.714 52.334l.145.145-.145-.145zM103.859 52.334l.289.29v-.29h-.29m.723 0l.145.145-.145-.145z" fill="#0096ff"/><path d="M66.567 52.479l.144.144-.144-.144z" fill="#fff"/><path d="M95.186 52.479l.145.144-.145-.144zM103.28 52.479l.145.144-.145-.144zM103.425 52.479l.145.144-.145-.144z" fill="#0096ff"/><path d="M74.661 54.358l.723-1.301.867.578c-.635-1.7-1.58-.482-1.59.723z" fill="#fff"/><path d="M97.932 52.623l.145.145-.145-.145m5.348 0l.145.145-.145-.145z" fill="#0096ff"/><path d="M57.171 52.768c.256.933.656 1.73 1.446 2.313l-.867-1.88 1.734.145c-.448-.812-1.497-.578-2.313-.578zM59.195 52.768l.145.144-.145-.144m7.227 0l.145.144-.145-.144z" fill="#fff"/><path d="M103.136 52.768l.144.144-.144-.144z" fill="#0096ff"/><path d="M29.708 52.912l.145.145-.145-.145zM75.817 52.912l.145.145-.145-.145z" fill="#fff"/><path d="M102.991 52.912l.145.145-.145-.145z" fill="#0096ff"/><path d="M67 53.057l.145.145-.145-.145zM49.8 53.635l2.023 2.457-1.156-2.023 1.735-.29-.145-.577-2.457.433zM57.75 53.202l.144.144-.144-.144z" fill="#fff"/><path d="M98.077 53.202l.144.144-.144-.144zM102.847 53.202v.433h.144l-.144-.433z" fill="#0096ff"/><path d="M57.316 53.346l.144.145-.144-.145z" fill="#fff"/><path d="M102.847 53.635l.144.145-.144-.145z" fill="#0096ff"/><path d="M43.295 53.78l.145.144-.145-.144m6.505 0l.144.144-.144-.144z" fill="#fff"/><path d="M102.847 53.78v.433h.144l-.144-.433zM97.836 54.02l.048.097-.048-.096m8.046-.097l.145.145-.145-.145z" fill="#0096ff"/><path d="M43.006 54.069l.145.144-.145-.144m22.982 0l.145.144-.145-.144m-34.69.144l.145.145-.145-.145m26.452 0l.144.145-.144-.145z" fill="#fff"/><path d="M95.33 54.213l.145.145-.144-.145z" fill="#0096ff"/><path d="M31.443 54.358l.144.144-.144-.144z" fill="#fff"/><path d="M102.991 54.358l.145.144-.145-.144zM97.354 54.502l.145.145-.145-.145zM102.991 54.502l.145.145-.145-.145zM95.909 54.647l.144.145-.144-.145zM96.053 54.647l.145.145-.145-.145m.964.048l.096.048-.096-.048zM103.136 54.647l.144.145-.144-.145zM105.497 54.743l.048.097-.048-.097zM105.593 54.647l.145.145-.145-.145z" fill="#0096ff"/><path d="M31.876 54.792l.145.144-.145-.144z" fill="#fff"/><path d="M96.487 54.792l.144.144-.144-.144zM103.28 54.792l.145.144-.145-.144zM90.994 54.936l.145.145-.145-.145zM103.425 54.936l.145.145-.145-.145zM103.714 54.936l.145.145-.145-.145z" fill="#0096ff"/><path d="M35.2 57.682v.29l4.193 1.445c-.086-1.099-1.506-1.426-2.458-1.59l2.891-2.602c-1.536-.18-3.38 1.692-4.625 2.457z" fill="#fff"/><path d="M103.57 55.08l.144.145-.144-.144zM103.714 55.08l.145.145-.145-.144zM103.859 55.08l.144.145-.144-.144zM104.437 55.08v.145h.433l-.433-.144z" fill="#0096ff"/><path d="M32.31 55.225l.145.145-.145-.145z" fill="#fff"/><path d="M98.944 55.225l.145.145-.145-.145m5.493 0l.144.145-.144-.145zM92.15 55.37l.145.144-.144-.144z" fill="#0096ff"/><path d="M41.272 57.104v.29l3.18 1.142 1.879 1.314c-.206-1.535-1.835-1.793-2.891-2.601 1.343-.253 3.165-.275 3.758-1.735l-5.926 1.59zM89.404 55.659l.145.144-.145-.144zM92.873 55.659l.145.144-.145-.144z" fill="#fff"/><path d="M37.947 55.803l.145.145-.145-.145m8.095.145l.144.144-.144-.144m.867 0l.144.144-.144-.144m59.407 0l.144.144-.144-.144m-73.283.144l.144.145-.144-.145z" fill="#0e0d08"/><path d="M106.316 56.092l.144.145-.144-.145z" fill="#020202"/><path d="M37.225 56.237l.144.144-.144-.144m9.395 0l.144.144-.144-.144m52.035.144l.145.145-.145-.145m5.493 0l.144.145-.144-.145m-67.357.145l.144.145-.144-.145z" fill="#0e0d08"/><path d="M100.1 56.526l.145.145-.144-.145m-82.534.29l.144.144-.144-.145z" fill="#0f0d06"/><path d="M104.148 56.815l.144.145-.144-.145z" fill="#010101"/><path d="M32.455 57.104l.144.145-.144-.145zM61.652 58.116l.434-1.012c-.615.098-1.1.574-.434 1.012zM35.78 57.249l.144.144-.145-.144z" fill="#fff"/><path d="M18.434 57.393l.145.145-.145-.145z" fill="#0096ff"/><path d="M93.74 57.393l.145.145-.144-.145zM43.729 57.538l.144.144-.144-.144z" fill="#fff"/><path d="M104.292 57.538l.145.144-.145-.144z" fill="#010101"/><path d="M32.888 57.682l.145.145-.145-.145zM94.174 57.682l.145.145-.145-.145zM98.077 57.682l.144.145-.144-.145z" fill="#fff"/><path d="M11.062 57.827l.145.144-.145-.144zM19.012 57.827l.145.144-.145-.144z" fill="#0096ff"/><path d="M29.42 57.827l.144.144-.145-.144z" fill="#fff"/><path d="M105.449 57.827l.144.144-.144-.144z" fill="#020202"/><path d="M44.74 57.971l.145.145-.144-.145zM66.856 57.971l-.145 1.012c.452-.264.53-.502.434-1.012h-.29zM67.145 57.971l.144.145-.144-.145zM72.927 58.983l.433-1.012c-.56.163-1.026.566-.433 1.012zM97.932 57.971l.145.145-.145-.145z" fill="#fff"/><path d="M105.304 57.971l.145.145-.145-.145z" fill="#020202"/><path d="M44.018 58.26l.145.145-.145-.144zM96.487 58.26l.144.145-.144-.144zM99.378 58.26l.144.145-.144-.144z" fill="#fff"/><path d="M105.015 58.26l.145.145-.145-.144m-.145.144l.145.145-.145-.145z" fill="#010101"/><path d="M45.608 58.55l.145.144-.145-.144z" fill="#fff"/><path d="M20.024 58.694l.145.145-.145-.145z" fill="#0096ff"/><path d="M96.776 58.694l.145.145-.145-.145z" fill="#ff8080"/><path d="M14.098 58.839l.144.144-.144-.144z" fill="#0096ff"/><path d="M67 58.839l.145.144L67 58.84m5.637 0l.145.144-.145-.144zM77.263 59.85v.579l1.445-1.012-1.445.433zM45.753 59.561l.144.145-.144-.145m32.088 0l.145.145-.145-.145m.723 0l.144.145-.144-.145zM84.2 59.561v1.735c.544-.532.544-1.203 0-1.735zM103.425 59.561l.145.145-.145-.145z" fill="#fff"/><path d="M109.351 59.561l.145.145-.145-.145z" fill="#0d0b05"/><path d="M77.696 59.706l.145.144-.145-.144m.723 0l.145.144-.145-.144m5.637 0l.145.144-.145-.144zM98.51 59.706l.145.144-.144-.144zM102.702 59.85l.145.145-.145-.145zM77.552 60.284l.144.145-.144-.145m-20.67.145l.145.144-.145-.144zM55.726 62.452l1.734.434-.962-.928.529-1.385c-.697.361-1.124 1.127-1.301 1.88zM103.57 60.573l.144.145-.144-.145z" fill="#fff"/><path d="M463.124 434.38v.144c3.637.46 5.275-1.278 7.95-3.324-.384 1.035-2.292 2.364-2.242 3.324.054 1.029 1.671 1.124 2.387.84 1.366-.541 2.23-2.05 2.526-3.441.617-2.888-3.175-5.253-5.548-3.41-2.035 1.58-2.933 4.28-5.073 5.867z" fill="url(#b)" transform="translate(-365.48 -367.447)"/><path d="M14.387 60.862l.144.145-.144-.145z" fill="#0096ff"/><path d="M29.564 63.753c.187 1.078 1.256.5 2.023.447 1.103-.075 3.15.281 3.758 1.288l1.012-.145c-.258-1.636-2.617-1.633-3.902-1.734.946-.957 2.302-1.242 2.601-2.747l-5.492 2.891z" fill="#fff"/><path d="M108.34 60.862l.144.145-.145-.145z" fill="#0d0b05"/><path d="M22.481 61.007l.145.144-.145-.144z" fill="#0096ff"/><path d="M110.074 61.151l.144.145-.144-.145z" fill="#0d0b05"/><path d="M18.579 61.296l.144.144-.144-.144z" fill="#0096ff"/><path d="M56.16 61.296l.144.144-.144-.144m-22.26.144l.145.145-.145-.145m22.404.145l.145.145-.145-.145z" fill="#fff"/><path d="M23.493 61.874l.145.145-.145-.145z" fill="#0096ff"/><path d="M33.322 61.874l.144.145-.144-.145m1.156 0l.145.145-.145-.145z" fill="#fff"/><path d="M14.676 62.019l.144.144-.144-.144z" fill="#0096ff"/><path d="M62.953 62.019l-1.59 2.023 2.024.723-1.446-.867c.301-.631 1.482-1.18 1.012-1.88z" fill="#fff"/><path d="M107.906 62.019l.144.144-.144-.144z" fill="#0096ff"/><path d="M27.251 62.163l.145.145-.145-.145zM32.888 62.163l.145.145-.145-.145m22.693 0l.145.145-.145-.145zM33.9 62.452l.145.145-.145-.145m16.333 0l.145.145-.145-.145zM50.378 62.452l-1.735 1.59c.677.229 2.24 1.12 2.747.434l-1.88-.723.868-1.3m37.436 0l2.024 1.59v.288l-1.88 1.012c.99-.08 1.833-.381 2.603-1.012-.563-.952-1.66-1.67-2.747-1.879z" fill="#fff"/><path d="M108.195 62.597l.144.144-.144-.144z" fill="#0096ff"/><path d="M110.652 62.597l.145.144-.145-.144m-95.398.144l.145.145-.145-.145z" fill="#0d0b05"/><path d="M62.086 62.741l.144.145-.144-.145m.723 0l.144.145-.144-.145m25.873 0l.144.145-.144-.145z" fill="#fff"/><path d="M101.257 62.741l.144.145-.144-.145m6.938 0l.144.145-.144-.145z" fill="#0096ff"/><path d="M49.655 62.886l.145.144-.145-.144m.578 0l.145.144-.145-.144m11.708 0l.145.144-.145-.144z" fill="#fff"/><path d="M15.543 63.03l.145.145-.145-.145z" fill="#0096ff"/><path d="M41.416 63.03c-.875 1.962-2.222 3.56-3.758 5.057-.881.86-2.255 1.659-2.602 2.893l6.36-1.35 3.325-.673c-1.982-1.412-5.458.16-7.372 1.011 1.315-2.638 3.895-3.685 4.48-6.793l-.144-.145h-.289zM50.089 63.03l.144.145-.144-.145m11.708 0l.144.145-.144-.145m26.596 0l.144.145-.144-.145m-55.65.145l.145.145-.144-.145zM67.868 64.476l.867.144v-1.445c-.628.203-.699.71-.867 1.3zM30.72 63.32l.145.144-.145-.144zM88.826 63.32l.145.144-.145-.144m-47.699.144l.145.145-.145-.145z" fill="#fff"/><path d="M15.977 63.609l.144.144-.144-.144z" fill="#0096ff"/><path d="M33.033 63.609l.144.144-.144-.144m28.908.144l.145.145-.145-.145z" fill="#fff"/><path d="M108.34 63.753l.144.145-.145-.145z" fill="#0096ff"/><path d="M90.272 63.898l.144.144-.144-.144zM99.522 63.898l.145.144-.145-.144zM50.233 64.042l.145.145-.145-.145z" fill="#fff"/><path d="M105.015 64.042l.145.145-.145-.145z" fill="#0096ff"/><path d="M49.222 64.187l.144.144-.144-.144m18.646 0l.144.144-.144-.144zM74.661 64.187l.145 1.59c.67-.355 1.108-.851 1.3-1.59l-1.011.722-.434-.722zM35.78 64.331l.144.145-.145-.145m38.738 0l.144.145-.144-.145m1.156 0l.144.145-.144-.145zM90.416 64.331l.145.145-.145-.145z" fill="#fff"/><path d="M105.304 64.331l.145.145-.145-.145zM16.555 64.476l.144.144-.144-.144z" fill="#0096ff"/><path d="M50.089 64.476l.144.144-.144-.144m25.44 0l.144.144-.145-.144m13.443.144l.144.145-.144-.145zM99.667 64.91l.144.144-.144-.145z" fill="#fff"/><path d="M108.05 64.91l.145.144-.145-.145zM111.375 65.054l.144.145-.144-.145zM107.906 65.343l.144.145-.144-.145z" fill="#0096ff"/><path d="M40.983 65.488l.144.144-.144-.144z" fill="#fff"/><path d="M20.458 65.632l.144.145-.144-.145z" fill="#0096ff"/><path d="M103.136 65.777l.144.144-.144-.144zM98.8 65.921l.144.145-.144-.145zM102.991 65.921l.145.145-.145-.145m-4.336.145l.145.144-.145-.144zM54.28 67.222l.29-1.012c-.62.18-.961.628-.29 1.012z" fill="#fff"/><path d="M17.567 66.355l.144.144-.144-.144z" fill="#0096ff"/><path d="M53.847 66.355l.144.144-.144-.144m-14.743.144l.144.145-.144-.145zM101.835 66.5l.145.144-.145-.145zM38.959 66.644l.145.145-.145-.145z" fill="#fff"/><path d="M107.183 66.644l.145.145-.145-.145m-6.07.145l.144.144-.145-.144zM107.039 66.789l.144.144-.144-.144z" fill="#0096ff"/><path d="M80.154 67.078l-.145 2.023-1.3-.867c.135.877.748 1.293 1.59 1.445l.144-2.601h-.29zM99.811 67.078v.144h.434l-.434-.144zM44.452 71.558c.956-.04 4.288.087 4.77-.578l-3.18-.433 1.734-3.325c-1.052.329-2.857 3.317-3.324 4.336M56.16 84.134c1.09-.625 2.51-2.486 3.035-3.614-1.157.347-1.663 1.48-2.457 2.313l-.434-3.036c3.38-.295 4.866-3.988 6.856-6.21 1.21-1.35 2.728-1.936 4.274-2.751-.911-1.09-2.18.062-3.035.72-2.295 1.767-3.619 3.908-5.638 5.929l1.157-3.036h-.145c-.628 1.508-1.378 3.118-2.89 3.903l.577-2.024h-.144c-.608 1.452-1.293 2.167-2.89 2.168l1.444-3.324h-.144l-1.88 3.18-.577-.145 1.445-2.746h-.144c-.731 1.17-1.502 2.833-3.036 2.457l1.301-2.457c-.724.567-1.038 1.923-1.892 2.26-.39.153-1.125-.132-.969-.648.203-.67 1.306-1.33 1.741-1.901 1.48-1.944 2.68-5.113 4.878-6.309 1.8-.98 4.538.262 6.505.238 1.126-.014 2.41-.4 2.746-1.59-.92-.099-1.788.494-2.746.496-2.43.004-6.416-1.206-8.504.443-1.9 1.501-2.008 3.516-3.203 5.42-.584.93-1.615 1.56-2.458 2.23-.312.249-.877.61-.76 1.086.146.586 1.143.9 1.627 1.121 1.096.502 2.287.895 3.469 1.136.631.13 1.571.109 2.107.497.98.71.649 3.126.784 4.194z" fill="#fff"/><path d="M106.171 67.656l.145.144-.145-.144m-2.457.144l.145.145-.145-.145m2.024 0l.144.145-.144-.145z" fill="#0096ff"/><path d="M29.13 67.945l-.144.867.578-.867h-.434zM63.242 67.945l.145.144-.145-.144z" fill="#fff"/><path d="M104.292 67.945l.145.144-.145-.144z" fill="#0096ff"/><path d="M80.443 68.09l.144.144-.144-.145z" fill="#fff"/><path d="M104.148 72.137c-.332-.98-.18-2.166-.817-3.03-.832-1.128-2.698-1.032-3.953-1.017-.433.005-1.155-.021-1.436.39-.334.49.274 1.689.406 2.211.544 2.165 1.03 5.153 2.91 6.604 1.235.953 3.722.328 4.754-.693 1.645-1.63 2.089-5.437.417-7.196-2.066-2.175-2.035 1.695-2.281 2.73zM18.723 68.234l.145.144-.145-.144z" fill="#0096ff"/><path d="M54.714 68.234l.145.144-.145-.144zM32.31 68.378l.145.145-.145-.145zM37.225 68.378l.144.145-.144-.145m9.973 0l.145.145-.145-.145zM29.42 68.523l.144.145-.145-.145zM33.033 68.523l.144.145-.144-.145m4.047 0l.145.145-.145-.145m19.947 0l.144.145-.144-.145m-20.092.145l.145.144-.145-.144zM29.275 68.812l.144.145-.144-.145zM46.33 68.812l.145.145-.144-.145m7.805 0l.145.145-.145-.145zM64.399 68.812l.144.145-.144-.145z" fill="#fff"/><path d="M105.738 68.812l.144.145-.144-.145z" fill="#0096ff"/><path d="M113.11 68.957l-.773 3.613-.548 1.873 1.031.729-.289-1.3h.145c.668 1.604 1.373 1.878 3.035 1.878l-1.012-2.168c.667.767.909 1.851 2.024 2.024l-1.012-1.88c.925 1.005 1.382 1.698 2.746 1.012v-.289c-2.408-1.146-2.627-5-5.348-5.492zM89.983 70.113l.433-1.012c-.59.172-.9.503-.433 1.012zM46.042 69.246l.144.144-.144-.144zM103.425 69.246l.145.144-.145-.144zM55.581 69.39l.145.145-.145-.145zM97.932 69.39l.145.145-.145-.145z" fill="#fff"/><path d="M111.52 69.39l.144.145-.145-.145z" fill="#0096ff"/><path d="M41.416 69.535l.145.144-.145-.144zM55.437 69.535l.144.144-.144-.144m-26.307.144l.145.145-.145-.145m.578 0l.145.145-.145-.145m25.584 0l.145.145-.145-.145zM46.186 69.824l.145.144-.145-.144m6.938 0l.145.144-.145-.144zM31.587 69.968l.145.145-.145-.145zM94.608 69.968l.144.145-.144-.145z" fill="#fff"/><path d="M104.148 69.968l.144.145-.144-.145z" fill="#0096ff"/><path d="M31.443 70.258l.144.144-.144-.144zM54.859 70.258l.144.144-.144-.144zM70.47 70.258l1.59 1.734.722-1.734-.723 1.156-1.59-1.156m14.6 0l-.145 2.168-1.446-.868c-.08.953 1.38 2.036 2.168 2.458l-.289-3.758h-.289zM45.03 70.547l.144.144-.144-.144m2.457 0l.145.144-.145-.144m-2.602.144l.145.145-.145-.145zM94.174 70.691l.145.145-.145-.145z" fill="#fff"/><path d="M22.626 70.98l.144.145-.144-.145z" fill="#0096ff"/><path d="M31.732 71.125l.144.144-.144-.144zM44.452 71.125l.144.144-.144-.144zM64.832 71.125l.145.144-.145-.144zM93.885 71.125l.145.144-.145-.144m1.012.144l.145.145-.145-.145z" fill="#fff"/><path d="M71.337 71.414l.144.144-.144-.144m44.374 0l.145.144-.145-.144m-63.454.144l.145.145-.145-.145z" fill="#0e0d08"/><path d="M93.596 71.558l.145.145-.145-.145z" fill="#fff"/><path d="M21.325 71.703l.144.145-.144-.145m42.784 0l.145.145-.145-.145z" fill="#0096ff"/><path d="M65.266 71.703l.144.145-.144-.145z" fill="#fff"/><path d="M20.891 71.848l.145.144-.145-.144z" fill="#0096ff"/><path d="M71.626 71.848l.144.144-.144-.144m12.43 0l.145.144-.145-.144zM94.319 72.137l.144.144-.144-.144zM64.254 72.426l.145.144-.145-.144z" fill="#fff"/><path d="M20.891 72.57l.145.145-.145-.145z" fill="#0096ff"/><path d="M98.8 72.57l.144.145-.144-.145m-61.72.145l.145.144-.145-.144zM45.897 72.715c-.453 2.165-2 4.114-3.387 5.781-.661.795-1.678 1.594-1.961 2.602 2.395-.69 5.088-3.123 7.66-2.89-.661-1.282-3.748.496-4.914.722.938-1.39 2.22-2.6 2.824-4.192.253-.667.413-1.566-.222-2.023zM53.269 72.715l.144.144-.144-.144zM62.664 72.715l.145.144-.145-.144z" fill="#fff"/><path d="M22.626 72.86l.144.144-.144-.145m.578 0l.144.145-.144-.145z" fill="#0096ff"/><path d="M45.753 73.004l.144.144-.144-.144zM92.44 73.004l.144.144-.144-.144z" fill="#fff"/><path d="M98.944 73.148l.145.145-.145-.145m8.384.145l.144.144-.144-.144z" fill="#0096ff"/><path d="M116.867 73.293l.145.144-.145-.144z" fill="#0f0e08"/><path d="M63.098 73.437l.144.145-.144-.145zM32.31 73.582l.145.145-.145-.145z" fill="#fff"/><path d="M22.048 73.727l.144.144-.144-.144z" fill="#0096ff"/><path d="M61.652 73.727l.145.144-.145-.144z" fill="#fff"/><path d="M21.903 73.871l.145.145-.145-.145z" fill="#0096ff"/><path d="M85.213 73.871l.144.145-.144-.145zM78.13 76.184c-.611-.61-1.234-1.452-2.168-1.301l2.746 3.324.723-4.191c-1.101.174-1.048 1.267-1.3 2.168z" fill="#fff"/><path d="M115.133 74.016l.144.144-.144-.144z" fill="#0f0e07"/><path d="M30.576 74.16l.144.145-.144-.145m3.035 0l.145.145-.145-.145zM64.543 75.461l-.144-.723h-.434l.144 1.88c.842-.146 1.718-1.66 1.88-2.458l-1.446 1.301z" fill="#fff"/><path d="M107.183 74.16l.145.145-.145-.145z" fill="#0096ff"/><path d="M36.068 74.305l.145.144-.145-.144m25.15 0l.145.144-.144-.144m1.156 0l.144.144-.144-.144m17.056 0l.144.144-.144-.144zM92.729 74.305l.144.144-.144-.144z" fill="#fff"/><path d="M118.457 74.45l.145.144-.145-.145z" fill="#0d0b05"/><path d="M50.667 74.594l.145.144-.145-.144z" fill="#fff"/><path d="M111.664 74.594l.144.144-.144-.144z" fill="#0096ff"/><path d="M37.225 74.738l.144.145-.144-.145m7.805 0l.144.145-.144-.145zM55.919 74.835l.048.096-.048-.096zM92.15 74.883l.145.144-.144-.144z" fill="#fff"/><path d="M108.195 74.883l.144.144-.144-.144m4.48 0l.145.144-.144-.144zM45.897 75.027l.145.145-.145-.145m9.829 0l.144.145-.144-.145m-10.985.29l.144.144-.144-.144m62.008 0l.145.144-.145-.144zM108.05 75.317l.145.144-.145-.144z" fill="#0096ff"/><path d="M115.856 75.317l.144.144-.144-.144z" fill="#0f0d06"/><path d="M24.65 75.461l.144.145-.145-.145z" fill="#0096ff"/><path d="M49.655 75.461l.145.145-.145-.145zM90.994 75.461l.145.145-.145-.145z" fill="#fff"/><path d="M24.36 75.606l.145.144-.145-.144m.29 0l.144.144-.145-.144z" fill="#0096ff"/><path d="M54.425 75.606l.145.144-.145-.144z" fill="#fff"/><path d="M60.351 75.606l.145.144-.145-.144m46.254 0l.144.144-.144-.144m-28.475.289l.145.144-.145-.144m21.97 0l.145.144-.144-.144z" fill="#0096ff"/><path d="M27.107 76.04l.144.144-.144-.145zM59.918 76.184l.144.144-.144-.144m18.79 0l.145.144-.145-.144zM36.213 76.328l.144.145-.144-.145zM51.968 76.328l.144.145-.144-.145zM53.847 76.328l.144.145-.144-.145zM55.148 76.328l.144.145-.144-.145zM60.93 76.328l.144.145-.144-.145z" fill="#fff"/><path d="M108.629 76.328l.144.145-.144-.145z" fill="#0096ff"/><path d="M48.354 76.473l.145.144-.145-.144m8.817 0l.145.144-.145-.144zM69.891 76.473l-.723 1.879h-.144l-1.156-1.59 1.011 3.324h.145c.384-.965 1.746-2.742.867-3.613zM77.407 76.473l.145.144-.145-.144zM55.003 76.617l.145.145-.145-.145zM98.51 76.617l.145.145-.144-.145zM49.944 76.762l.145.145-.145-.145zM69.602 76.762l.145.145-.145-.145zM31.876 76.907l.145.144-.145-.144zM54.57 76.907l.144.144-.144-.144zM57.171 76.907l.145.144-.145-.144m1.301 0l.145.144-.145-.144z" fill="#fff"/><path d="M23.348 77.051l.145.145-.145-.145z" fill="#0096ff"/><path d="M58.761 77.051l.145.145-.145-.145m42.207 0l.144.145-.144-.145m-57.528.145l.144.144-.144-.144m57.672 0l.145.144-.145-.144z" fill="#fff"/><path d="M22.915 77.34l.144.145-.144-.145z" fill="#0096ff"/><path d="M51.679 77.34l.144.145-.144-.145zM53.558 77.34l.144.145-.144-.145zM58.761 77.34l.145.145-.145-.145zM85.502 77.485l.867 4.77c-.921-.805-3.763-4.514-4.914-3.18 2.659.847 3.767 3.954 6.07 5.348l-.72-2.747-.87-4.336-.433.145zM101.257 77.34l.144.145-.144-.145z" fill="#fff"/><path d="M104.003 77.485l.145.144-.145-.144zM107.617 77.485l.144.144-.144-.144zM22.481 77.63l.145.144-.145-.145zM26.24 77.63l.144.144-.145-.145z" fill="#0096ff"/><path d="M44.018 77.63l.145.144-.145-.145zM51.1 77.63l.145.144-.144-.145m.433 0l.145.145-.145-.145zM54.136 77.63l.145.144-.145-.145zM101.98 77.63l.144.144-.144-.145z" fill="#fff"/><path d="M107.472 77.63l.145.144-.145-.145z" fill="#0096ff"/><path d="M43.006 77.774l.145.144-.145-.144zM50.812 77.774l.144.144-.144-.144m2.023 0l.145.144-.145-.144zM33.756 77.918l.144.145-.144-.145zM57.316 78.063l.144.144-.144-.144z" fill="#fff"/><path d="M25.806 78.207l.144.145-.144-.145z" fill="#0096ff"/><path d="M53.702 78.207l.145.145-.145-.145zM57.027 78.207l.144.145-.144-.145zM45.174 78.352l.145.144-.145-.144zM100.39 78.352l.144.144-.144-.144zM50.378 78.496l.144.145-.144-.145zM93.162 78.496c-.731 1.792 1.055 3.715 1.735 5.349-1.88-.969-3.548-2.583-5.782-2.602v.578c3.219.28 4.935 3.574 7.516 5.059-.024-2.694-2.336-5.792-3.18-8.384h-.289zM97.499 78.496l.144.145-.144-.145zM44.307 78.641l.145.145-.145-.145zM100.968 78.641l.144.145-.144-.145z" fill="#fff"/><path d="M106.46 78.641l.145.145-.145-.145z" fill="#0096ff"/><path d="M58.617 78.786l.144.144-.144-.144z" fill="#fff"/><path d="M106.316 78.786l.144.144-.144-.144z" fill="#0096ff"/><path d="M36.213 78.93l.144.145-.144-.145m49.433 0l.145.145-.145-.145z" fill="#fff"/><path d="M106.171 78.93l.145.145-.145-.145z" fill="#0096ff"/><path d="M36.068 79.075l.145.144-.145-.144zM52.112 79.075l.145.144-.145-.144m6.071 0l.145.144-.145-.144zM98.366 79.075l.145.144-.145-.144zM35.924 79.22l.144.144-.144-.145m-.145.145l.145.144-.145-.144zM69.168 79.364l.145.144-.145-.144zM35.635 79.508l.144.145-.144-.145zM41.56 79.508l.145.145-.144-.145zM86.369 79.653l.145.144-.145-.144zM93.018 80.086l.144.145-.144-.145zM35.056 80.231l.145.145-.145-.145zM42.284 80.231l.144.145-.144-.145m-.29.145l.145.144-.145-.144zM63.82 80.665l-1.011.144c.34.81.942 1.466 1.225 2.313.313.938.11 2.233 1.087 2.746.453-1.016 1.565-2.673 1.301-3.758-.821.404-1.21 1.283-1.3 2.168h-.145l-1.157-3.613zM34.623 80.81l.144.144-.144-.145zM50.378 80.81c0 2.836-.386 5.503-1.156 8.238 1.005.037 1.532-1.009 2.077-1.734 1.076-1.433 2.156-3.013 3.849-3.759v-.144c-1.717-.222-3.863 2.345-4.481 3.758h-.145c.51-1.967.962-4.426.145-6.36h-.29zM59.05 80.81l.145.144-.145-.145zM100.679 80.81l.144.144-.144-.145z" fill="#fff"/><path d="M104.148 80.81l.144.144-.144-.145z" fill="#0096ff"/><path d="M74.95 83.99l-3.324-2.314c.185.592.654.768 1.093 1.175.862.8 1.615 2.67 2.81 2.873l.288-4.77c-1.166.445-.867 2.01-.867 3.035zM93.452 80.954l.144.144-.144-.144z" fill="#fff"/><path d="M104.003 80.954l.145.144-.145-.144z" fill="#0096ff"/><path d="M63.965 81.098l.144.145-.144-.145zM86.08 81.243l.144.144-.144-.144zM63.098 81.387l.144.145-.144-.145zM84.49 81.387l.144.145-.144-.145m1.012.145l.144.144-.144-.144zM85.646 81.676l.145.145-.145-.145zM58.039 81.82l.144.145-.144-.144m14.165 0l.144.144-.144-.144zM91.717 81.965l.145.145-.145-.145z" fill="#fff"/><path d="M34.912 82.11l.144.145-.144-.145z" fill="#0f0"/><path d="M66.422 82.11l.145.145-.145-.145m-8.817.29l.145.144-.145-.145zM85.357 82.4l.145.144-.145-.145zM94.897 82.4l.145.144-.145-.145zM101.835 82.4l.145.144-.145-.145zM102.558 82.4l.144.144-.144-.145z" fill="#fff"/><path d="M35.2 82.544l.145.144-.144-.144z" fill="#0f0"/><path d="M102.413 82.544l.145.144-.145-.144zM72.637 82.688l.145.145-.145-.145zM93.018 82.688l.144.145-.144-.145zM102.269 82.688l.144.145-.144-.145zM42.284 82.977l.144.145-.144-.145m21.68 0l.145.145-.144-.145m9.25.29l.145.144-.144-.145z" fill="#fff"/><path d="M42.139 83.555l.145.145-.145-.145z" fill="#0f0"/><path d="M74.517 83.7l.144.145-.144-.145zM83.19 83.7c-1.02 1.807.465 5.53.722 7.516h-.145c-.805-1.701-2.357-3.107-3.613-4.48-.177-.194-1.093-1.441-1.42-.917-.342.547 1.331 1.845 1.645 2.217 1.155 1.37 2.199 2.918 3.073 4.481.506.904.946 2.112 1.905 2.602-.723-3.729-1.868-7.601-1.879-11.419h-.289zM93.018 83.7l.144.145-.144-.145zM53.558 83.845l.144.144-.144-.144zM54.28 83.845l.145.144-.144-.144m10.551 0l.145.144-.145-.144zM86.803 83.845l.144.144-.144-.144z" fill="#fff"/><path d="M82.9 83.99l.145.144-.145-.145zM101.69 83.99l.145.144-.145-.145zM56.16 84.134l.144.144-.144-.144zM64.977 84.134l.144.144-.144-.144zM98.366 84.278l.145.145-.145-.145m1.88 0l.144.145-.145-.145zM53.558 84.423l.144.144-.144-.144m20.525 0l.144.144-.144-.144zM93.74 84.423l.145.144-.144-.144z" fill="#fff"/><path d="M41.85 84.567l.144.145-.144-.145z" fill="#0f0"/><path d="M99.089 84.712l.144.144-.144-.144zM50.089 84.856l.144.145-.144-.145z" fill="#fff"/><path d="M37.08 85l.145.145-.145-.144z" fill="#0f0"/><path d="M74.517 85l.144.145-.144-.144m8.383 0l.145.144-.145-.144zM101.69 85l.145.145-.145-.144zM52.69 85.29l.145.145-.144-.145m22.115.145l.144.144-.144-.144z" fill="#fff"/><path d="M41.272 86.013l.144.144-.144-.144z" fill="#0f0"/><path d="M95.475 86.013l.145.144-.145-.144zM79.575 86.157l.145.145-.145-.145zM47.92 86.302l.145.144-.144-.144zM59.05 86.302l-.144.144c.707 1.943 1.403 3.553 1.746 5.637.16.969.06 2.229.856 2.891.812-1.542 1.105-3.331 1.847-4.914.426-.909 1.121-1.707.899-2.746-1.39.683-2.21 3.768-2.602 5.203-.717-1.91-.497-5.231-2.602-6.215zM78.997 86.59l.145.145-.145-.144m.145.144l.144.145-.144-.145zM50.522 86.88l.145.144-.145-.144zM79.286 86.88l.145.144-.145-.144z" fill="#fff"/><path d="M39.104 87.024l.144.145-.144-.145zM42.139 87.024l.145.145-.145-.145z" fill="#0f0"/><path d="M50.522 87.024l.145.145-.145-.145zM79.43 87.024l.145.145-.144-.145zM99.089 87.024l.144.145-.144-.145zM51.245 87.169l.145.145-.145-.145m12.575.145l.145.144-.145-.144zM83.19 87.314l.144.144-.145-.144zM64.254 87.458l.145.145-.145-.145zM80.732 87.458l.144.145-.144-.145zM80.876 87.603l.145.144-.145-.144zM39.97 87.747l.145.145-.144-.145m10.84 0l.145.145-.144-.145zM68.88 87.747c1.634 3.246 2.844 6.3 3.757 9.83 1.02-.572.88-1.581.868-2.603-.026-2.378.887-4.746.722-7.082-.682.233-.804.932-.922 1.59-.285 1.577-.29 3.205-.668 4.77-.783-1.821-1.405-6.128-3.758-6.505zM69.313 87.747l.145.145-.145-.145zM92.44 87.747l.144.145-.144-.145zM59.629 87.892l.144.144-.144-.144zM80.298 87.892l.145.144-.145-.144m-38.448.144l.144.145-.144-.145zM52.835 88.036l.145.145-.145-.145z" fill="#fff"/><path d="M73.65 88.036l.144.145-.145-.145zM98.366 88.036l.145.145-.145-.145z" fill="#fff"/><path d="M35.056 88.18l.145.145-.145-.144z" fill="#0f0"/><path d="M73.505 88.325l.144.145-.144-.145m-29.342.29l.144.144-.144-.145zM63.098 88.614l.144.145-.144-.145m.867 0l.144.145-.144-.145zM80.876 88.614l.145.145-.145-.145m-36.858.145l.145.145-.145-.145zM92.873 88.759l.145.145-.145-.145zM97.788 88.759l.144.145-.144-.145z" fill="#fff"/><path d="M43.873 88.904l.145.144-.145-.144z" fill="#0f0"/><path d="M63.82 88.904l.145.144-.145-.144zM70.325 88.904l.144.144-.144-.144zM82.177 89.048l.145.145-.145-.145zM63.676 89.193l.144.144-.144-.144zM69.747 89.337l.144.145-.144-.145z" fill="#fff"/><path d="M33.611 89.482l.145.144-.145-.144zM45.174 89.482l.145.144-.145-.144zM33.322 89.626l.144.145-.144-.145z" fill="#0f0"/><path d="M62.664 89.626l.145.145-.145-.145zM69.891 89.626l.145.145-.145-.145zM97.065 89.626l.145.145-.145-.145zM70.036 89.915l.144.145-.144-.145m.867 0l.144.145-.144-.145m-.723.29l.145.144-.145-.145m.867 0l.145.145-.145-.145m-8.672.145l.144.145-.144-.145m.723 0l.144.145-.144-.145zM88.248 90.349l.145.145-.145-.145zM71.192 90.494l.145.144-.145-.144z" fill="#fff"/><path d="M42.139 90.783l.145.144-.145-.144z" fill="#0f0"/><path d="M58.472 90.927l.145.145-.145-.145zM82.466 90.927l.145.145-.145-.145zM62.086 91.072l.144.144-.144-.144zM89.26 91.072l.144.144-.144-.144z" fill="#fff"/><path d="M44.596 91.216l.145.145-.145-.145z" fill="#0f0"/><path d="M58.761 91.216l.145.145-.145-.145zM89.838 91.505l.145.145-.145-.145m-9.25.145l.144.144-.145-.144m.29 0l.144.144-.145-.144z" fill="#fff"/><path d="M41.272 91.794l.144.145-.144-.145z" fill="#0f0"/><path d="M61.797 91.794l.144.145-.144-.145zM83.045 91.794l.144.145-.144-.145m-36.714.579l.144.144-.144-.144zM64.399 92.373l.144.144-.144-.144m-23.705.144l.144.145-.144-.145zM84.779 92.517l.145.145-.145-.145zM72.06 92.662l.144.144-.145-.144m-25.15.144l.144.145-.144-.145zM83.623 92.806l.144.145-.144-.145zM74.806 92.95l.144.145-.144-.144z" fill="#fff"/><path d="M47.198 93.095l.145.145-.145-.145z" fill="#0f0"/><path d="M91.862 93.24l.144.144-.144-.144z" fill="#fff"/><path d="M40.115 93.384l.145.145-.145-.145z" fill="#0f0"/><path d="M60.785 93.384l.145.145-.145-.145zM69.602 93.384l.145.145-.145-.145zM92.006 93.384l.145.145-.145-.145zM52.546 93.529l.145.144-.145-.144m19.802.144l.145.145-.145-.145m-24.138.145l.144.145-.144-.145m28.33 0l.145.145-.145-.145m-27.897.29l.145.144-.145-.145m27.03.145l.144.144-.144-.144m-19.513.144l.144.145-.144-.145m20.814 0l.144.145-.144-.145m-20.959.29l.145.144-.145-.145m-5.926.145l.144.144-.144-.144m1.879 0l.144.144-.144-.144m25.295 0l.144.144-.144-.144m-26.74.144l.144.145-.145-.145m15.177.145l.145.144-.145-.144zM56.738 95.408l.144.144-.144-.144zM89.26 95.986l.144.145-.144-.145zM95.042 95.986l.144.145-.144-.145zM73.65 96.13l.144.145-.145-.144zM88.682 96.275l.144.145-.144-.145zM66.278 96.564l.144.145-.144-.145m6.07 0l.145.145-.145-.145zM87.67 96.709l.144.144-.144-.144zM73.216 97.142l.144.145-.144-.145zM77.407 97.142l.145.145-.145-.145zM86.803 97.142l.144.145-.144-.145zM56.449 97.287l.144.145-.144-.145m16.622 0l.145.145-.145-.145zM86.514 97.287l.144.145-.144-.145zM69.747 97.576l.144.145-.144-.145zM77.552 97.576l.144.145-.144-.145m1.156 0l.145.145-.145-.145zM58.617 98.01l.144.144-.144-.144m8.239.289l.144.144-.144-.144zM84.056 98.299l.145.144-.145-.144m-.433.144l.144.145-.144-.145zM96.342 98.588l.145.144-.145-.144m.29 0l.144.144-.145-.144zM82.61 98.732l.145.145-.144-.145zM79.286 99.022l.145.144-.145-.144m-25.15.289l.145.144-.145-.144zM63.098 99.31l.144.145-.144-.144zM64.399 99.6l.144.144-.144-.144z" fill="#fff"/><path d="M87.236 102.057l.145.144-.145-.144m-6.793.578l.144.145-.144-.145z" fill="#010101"/><path d="M87.959 102.78l.145.144-.145-.144m-15.032.144l.144.145-.144-.145m15.177 0l.289.29-.29-.29z" fill="#0d0b05"/><path d="M81.165 103.213l.145.145-.145-.145z" fill="#0e0b05"/><path d="M104.361 68.03c-.572-.103-1.019-.529-1.019-.968 0-.415.266-.834 1.348-2.125.864-1.03.76-1.002-.838.22-1.767 1.35-3.032 1.864-4.796 1.949-.819.039-1.489.018-1.489-.046s.241-.32.536-.568c.295-.248 1.286-1.453 2.201-2.678 1.672-2.238 2.488-2.996 3.562-3.311 1.7-.499 3.887.814 4.38 2.627.456 1.683-1.028 4.394-2.654 4.846-.35.097-.675.166-.721.154a13.698 13.698 0 0 0-.51-.1zM102.068 77.72c-.556-.154-1.272-.734-1.793-1.453-.62-.856-1.058-2.028-1.793-4.8a182.155 182.155 0 0 0-.67-2.488c-.238-.775 1.45-1.169 3.516-.82 1.626.274 2.223.819 2.515 2.294.11.557.22 1.09.246 1.183.026.094.146-.353.267-.993.134-.711.368-1.335.602-1.607l.381-.444.62.418c.973.657 1.524 1.946 1.514 3.541-.015 2.258-.945 4.018-2.513 4.755-.776.365-2.289.582-2.892.414z" fill="#fff"/></svg>