<svg height="512" width="512" xmlns="http://www.w3.org/2000/svg"><path d="M512 256c0 141.385-114.615 256-256 256S0 397.385 0 256 114.615 0 256 0s256 114.615 256 256z" fill="#f47421"/><path d="M326.295 138.707c15.824 9.138 36.052 3.718 45.184-12.102 9.137-15.825 3.72-36.052-12.104-45.188-15.823-9.134-36.049-3.715-45.186 12.11-9.133 15.82-3.715 36.046 12.106 45.18zm-67.714 213.94a96.254 96.254 0 0 1-40.712-8.992l-22.99 41.198c19.204 9.508 40.822 14.88 63.702 14.88 13.306 0 26.172-1.843 38.398-5.229 2.164-13.288 10.054-25.535 22.634-32.8 12.557-7.25 27.09-7.968 39.67-3.214 24.464-24.055 40.383-56.784 42.7-93.232l-47.153-.683c-4.339 49.37-45.757 88.075-96.249 88.075zm0-193.295c50.492 0 91.91 38.712 96.25 88.077l47.152-.69c-2.32-36.446-18.24-69.174-42.707-93.228-12.578 4.75-27.109 4.03-39.668-3.22-12.578-7.262-20.467-19.507-22.63-32.797a143.763 143.763 0 0 0-38.397-5.228c-22.88 0-44.497 5.37-63.699 14.883l22.989 41.192a96.244 96.244 0 0 1 40.71-8.992zM161.935 256c0-32.698 16.25-61.579 41.095-79.067l-24.187-40.52c-28.954 19.346-50.493 48.918-59.44 83.556 10.452 8.519 17.13 21.49 17.13 36.034 0 14.54-6.68 27.513-17.13 36.03 8.944 34.64 30.483 64.211 59.438 83.557l24.19-40.521c-24.846-17.486-41.096-46.367-41.096-79.07zM326.3 373.29c-15.826 9.137-21.244 29.363-12.11 45.182 9.137 15.824 29.362 21.246 45.188 12.11 15.82-9.135 21.24-29.362 12.104-45.186-9.133-15.817-29.362-21.239-45.182-12.106zM90.07 222.918c-18.277 0-33.087 14.808-33.087 33.085 0 18.271 14.81 33.08 33.086 33.08 18.27 0 33.081-14.809 33.081-33.08 0-18.277-14.811-33.085-33.08-33.085" fill="#fff"/></svg>